<svg width="16" height="14" viewBox="0 0 16 14" fill="none" xmlns="http://www.w3.org/2000/svg">
<path fill-rule="evenodd" clip-rule="evenodd" d="M2.25 3.75C2.25 2.64543 3.14543 1.75 4.25 1.75C5.35457 1.75 6.25 2.64543 6.25 3.75C6.25 4.85457 5.35457 5.75 4.25 5.75C3.14543 5.75 2.25 4.85457 2.25 3.75ZM7.66946 3C7.32612 1.42741 5.92556 0.25 4.25 0.25C2.317 0.25 0.75 1.817 0.75 3.75C0.75 5.683 2.317 7.25 4.25 7.25C5.92556 7.25 7.32612 6.07259 7.66946 4.5H13C13.4142 4.5 13.75 4.16421 13.75 3.75C13.75 3.33579 13.4142 3 13 3H7.66946ZM2.25 10.25C2.25 9.83579 2.58579 9.5 3 9.5H8.33054C8.67388 7.92741 10.0744 6.75 11.75 6.75C13.683 6.75 15.25 8.317 15.25 10.25C15.25 12.183 13.683 13.75 11.75 13.75C10.0744 13.75 8.67388 12.5726 8.33054 11H3C2.58579 11 2.25 10.6642 2.25 10.25ZM9.75 10.25C9.75 11.3546 10.6454 12.25 11.75 12.25C12.8546 12.25 13.75 11.3546 13.75 10.25C13.75 9.14543 12.8546 8.25 11.75 8.25C10.6454 8.25 9.75 9.14543 9.75 10.25Z" fill="#E84C4F"/>
</svg>
