<svg width="14" height="18" viewBox="0 0 14 18" fill="none" xmlns="http://www.w3.org/2000/svg">
<path d="M13.8051 0.999951C13.8051 0.559951 13.4451 0.199951 13.0051 0.199951H1.00508C0.565078 0.199951 0.205078 0.559951 0.205078 0.999951V17C0.205078 17.44 0.565078 17.7999 1.00508 17.7999H13.0051C13.4451 17.7999 13.8051 17.44 13.8051 17V0.999951ZM12.2051 16.2H1.80508V1.79995H12.2051V16.2ZM3.50508 12.8C3.50508 12.36 3.86508 12 4.30508 12H9.70508C10.1451 12 10.5051 12.36 10.5051 12.8C10.5051 13.24 10.1451 13.6 9.70508 13.6H4.30508C3.86508 13.6 3.50508 13.24 3.50508 12.8ZM3.62508 8.99995C3.62508 8.55995 3.98508 8.19995 4.42508 8.19995H9.68508C10.1251 8.19995 10.4851 8.55995 10.4851 8.99995C10.4851 9.43995 10.1251 9.79995 9.68508 9.79995H4.42508C3.98508 9.79995 3.62508 9.43995 3.62508 8.99995ZM3.62508 5.19995C3.62508 4.75995 3.98508 4.39995 4.42508 4.39995H9.68508C10.1251 4.39995 10.4851 4.75995 10.4851 5.19995C10.4851 5.63995 10.1251 5.99995 9.68508 5.99995H4.42508C3.98508 5.99995 3.62508 5.63995 3.62508 5.19995Z" fill="#CACACA"/>
</svg>
