<svg width="34" height="37" viewBox="0 0 34 37" fill="none" xmlns="http://www.w3.org/2000/svg">
<rect width="32" height="32" rx="16" fill="#E84C4F"/>
<rect x="21" y="24" width="12" height="12" rx="6" fill="#EDA345" stroke="#F8F5F2" stroke-width="2"/>
<path d="M16 9C13.2386 9 11 11.2386 11 14V16.9459C11 17.5754 10.5972 18.1343 10 18.3333C9.7014 18.4329 9.5 18.7123 9.5 19.027V19.7C9.5 19.98 9.5 20.12 9.5545 20.227C9.60243 20.3211 9.67892 20.3976 9.773 20.4455C9.87996 20.5 10.02 20.5 10.3 20.5H21.7C21.98 20.5 22.12 20.5 22.227 20.4455C22.3211 20.3976 22.3976 20.3211 22.4455 20.227C22.5 20.12 22.5 19.98 22.5 19.7V19.027C22.5 18.7123 22.2986 18.4329 22 18.3333C21.4028 18.1343 21 17.5754 21 16.9459V14C21 11.2386 18.7614 9 16 9Z" stroke="white" stroke-width="1.5" stroke-linecap="round" stroke-linejoin="round"/>
<path d="M16 23C17.3807 23 18.5 22.1046 18.5 21C18.5 20.8274 18.4727 20.6598 18.4212 20.5H13.5788C13.5273 20.6598 13.5 20.8274 13.5 21C13.5 22.1046 14.6193 23 16 23Z" stroke="white" stroke-width="1.5"/>
</svg>
